<svg xmlns="http://www.w3.org/2000/svg" width="512" height="512" viewBox="0 0 512 512">
  
    <defs>
      <marker id="arrow-ink" markerWidth="28" markerHeight="28" refX="22" refY="14" orient="auto" markerUnits="userSpaceOnUse">
        <path d="M7,6 L22,14 L7,22" fill="none" stroke="#141414" stroke-width="5" stroke-linecap="round" stroke-linejoin="round"/>
      </marker>
      <marker id="arrow-orange" markerWidth="28" markerHeight="28" refX="22" refY="14" orient="auto" markerUnits="userSpaceOnUse">
        <path d="M7,6 L22,14 L7,22" fill="none" stroke="#F97316" stroke-width="5" stroke-linecap="round" stroke-linejoin="round"/>
      </marker>
    </defs>
    
  <g fill="none" stroke-linecap="round" stroke-linejoin="round">
    <circle cx="205" cy="178" r="32" fill="none" stroke="#141414" stroke-width="20" />
<path d="M190 218 C176 244 176 274 194 300" fill="none" stroke="#141414" stroke-width="20" stroke-linecap="round" stroke-linejoin="round" />
<line x1="204" y1="238" x2="252" y2="264" stroke="#141414" stroke-width="20" stroke-linecap="round" />
<line x1="168" y1="300" x2="232" y2="300" stroke="#141414" stroke-width="20" stroke-linecap="round" />
<rect x="250" y="238" width="116" height="62" rx="8" fill="none" stroke="#141414" stroke-width="20" stroke-linejoin="round" />
<line x1="78" y1="320" x2="406" y2="320" stroke="#141414" stroke-width="20" stroke-linecap="round" />
<line x1="118" y1="320" x2="92" y2="404" stroke="#141414" stroke-width="20" stroke-linecap="round" />
<line x1="360" y1="320" x2="390" y2="404" stroke="#141414" stroke-width="20" stroke-linecap="round" />
<line x1="174" y1="330" x2="174" y2="396" stroke="#141414" stroke-width="20" stroke-linecap="round" />
<line x1="208" y1="300" x2="246" y2="376" stroke="#141414" stroke-width="20" stroke-linecap="round" />
<rect x="378" y="266" width="42" height="42" rx="8" fill="none" stroke="#141414" stroke-width="20" stroke-linejoin="round" />
<path d="M420 280 C444 282 444 306 420 308" fill="none" stroke="#141414" stroke-width="20" stroke-linecap="round" stroke-linejoin="round" />
<path d="M386 232 C374 214 404 212 392 194" fill="none" stroke="#F97316" stroke-width="16" stroke-linecap="round" stroke-linejoin="round" />
<path d="M412 232 C400 214 430 212 418 194" fill="none" stroke="#F97316" stroke-width="16" stroke-linecap="round" stroke-linejoin="round" />
  </g>
</svg>
