<svg xmlns="http://www.w3.org/2000/svg" width="512" height="512" viewBox="0 0 512 512">
  
    <defs>
      <marker id="arrow-ink" markerWidth="28" markerHeight="28" refX="22" refY="14" orient="auto" markerUnits="userSpaceOnUse">
        <path d="M7,6 L22,14 L7,22" fill="none" stroke="#141414" stroke-width="5" stroke-linecap="round" stroke-linejoin="round"/>
      </marker>
      <marker id="arrow-orange" markerWidth="28" markerHeight="28" refX="22" refY="14" orient="auto" markerUnits="userSpaceOnUse">
        <path d="M7,6 L22,14 L7,22" fill="none" stroke="#F97316" stroke-width="5" stroke-linecap="round" stroke-linejoin="round"/>
      </marker>
    </defs>
    
  <g fill="none" stroke-linecap="round" stroke-linejoin="round">
    <path d="M70 182 C112 132 182 132 224 182 C182 232 112 232 70 182" fill="none" stroke="#141414" stroke-width="20" stroke-linecap="round" stroke-linejoin="round" />
<circle cx="147" cy="182" r="22" fill="none" stroke="#141414" stroke-width="20" />
<path d="M330 148 C350 174 350 210 330 236" fill="none" stroke="#141414" stroke-width="20" stroke-linecap="round" stroke-linejoin="round" />
<path d="M374 122 C408 164 408 220 374 262" fill="none" stroke="#141414" stroke-width="20" stroke-linecap="round" stroke-linejoin="round" />
<line x1="94" y1="330" x2="208" y2="330" stroke="#141414" stroke-width="20" stroke-linecap="round" />
<line x1="116" y1="364" x2="190" y2="364" stroke="#141414" stroke-width="20" stroke-linecap="round" />
<circle cx="260" cy="256" r="24" fill="#F97316" stroke="#F97316" stroke-width="20" />
<line x1="194" y1="210" x2="240" y2="242" stroke="#F97316" stroke-width="14" stroke-linecap="round" />
<line x1="330" y1="236" x2="282" y2="250" stroke="#F97316" stroke-width="14" stroke-linecap="round" />
<line x1="208" y1="330" x2="246" y2="278" stroke="#F97316" stroke-width="14" stroke-linecap="round" />
  </g>
</svg>
